<svg width="46" height="56" viewBox="0 0 46 56" fill="none" xmlns="http://www.w3.org/2000/svg">
<path d="M55.9953 24.3237C55.8932 22.2506 54.9906 20.2389 53.2915 18.324C50.8293 15.5488 46.6367 12.9635 40.8302 10.64C35.7211 8.59517 30.2464 7.5144 24.9985 7.5144C19.2349 7.5144 13.8974 8.81634 9.56054 11.2797C9.23125 11.4488 6.7979 12.7512 4.46632 15.4143C2.35527 17.8256 -0.0436297 21.824 0.00860659 27.4968C0.00177935 27.5482 -0.00155488 35.8544 0.000826713 35.8841C0.392202 41.0788 2.98893 45.0515 7.31264 47.0706C9.35319 48.0234 11.7127 48.4858 14.1157 48.4858C17.799 48.4856 21.5836 47.3993 24.4739 45.3279C32.0739 39.8814 37.7061 38.2419 43.3065 39.845C46.9821 40.8977 49.9995 40.7013 52.2747 39.261C54.2496 38.011 55.5347 35.886 55.9911 33.1159C56.0018 33.0518 56.0024 24.3758 55.9953 24.3237ZM53.5476 25.6787C53.1432 28.1409 51.7686 31.0758 47.5162 31.0758C46.4364 31.0758 45.2205 30.8837 43.9019 30.505C43.1785 30.2974 42.4481 30.1392 41.7152 30.0271L51.1375 19.5046C53.0702 21.5104 53.8919 23.5841 53.5476 25.6787ZM49.36 17.9197L38.6893 29.8364C34.4077 29.9525 30.0148 31.6379 24.6916 35.2227L43.3617 14.3404C45.7833 15.494 47.785 16.6912 49.36 17.9197ZM39.9452 12.8509C40.3325 13.0059 40.7088 13.1621 41.0801 13.319L18.6141 38.4467C17.1809 38.8514 15.6619 39.0693 14.1388 39.0693C12.5312 39.0693 10.8715 38.8136 9.32366 38.2436L33.9857 10.9698C36.0026 11.4453 38.0015 12.0731 39.9452 12.8509ZM24.9985 9.896C27.0635 9.896 29.1669 10.0765 31.2681 10.4244L7.10782 37.1433C5.284 35.964 3.79486 34.1902 3.00592 31.6833L22.4272 9.99333C23.2722 9.93077 24.1291 9.896 24.9985 9.896ZM6.19805 17.0519C8.37086 14.5985 10.6351 13.4047 10.6556 13.3946C10.6754 13.3846 14.3463 11.144 18.8076 10.4655L2.44672 28.7379C2.4445 28.7098 2.06773 21.7155 6.19805 17.0519ZM51.0011 37.2488C49.3247 38.3098 46.9565 38.4127 43.962 37.5555C40.6124 36.5962 37.2548 36.6573 33.697 37.7408C30.5084 38.7122 27.0378 40.5608 23.0866 43.3922C18.9667 46.3449 12.7565 46.9844 8.32037 44.9126C5.85859 43.7632 2.84366 41.256 2.38782 35.8431C3.0734 36.8455 3.89854 37.7352 4.86309 38.4927C7.29263 40.4004 10.5867 41.451 14.1388 41.451C17.8991 41.451 21.6656 40.294 24.4723 38.2767C30.3084 34.082 34.8401 32.2115 39.1663 32.2115C40.5444 32.2115 41.8785 32.4022 43.2445 32.7945C44.7767 33.2343 46.2141 33.4576 47.5162 33.4577C47.5165 33.4577 47.5162 33.4577 47.5163 33.4577C50.0705 33.4577 52.1528 32.6099 53.6256 31.0371V32.8223C53.3741 34.2627 52.713 36.1653 51.0011 37.2488Z" fill="#C72828"/>
</svg>
