<svg width="56" height="56" viewBox="0 0 56 56" fill="none" xmlns="http://www.w3.org/2000/svg">
<path d="M26.2263 18.6668C28.1653 18.672 30.0257 17.9013 31.3932 16.5267C32.4115 15.5033 33.7968 14.9296 35.2404 14.9335H54.5C54.7761 14.9335 55 14.7096 55 14.4335V9.83346C55 9.55731 54.7761 9.33346 54.5 9.33346H35.2404C33.7968 9.33731 32.4115 8.76366 31.3932 7.74026C30.0257 6.36557 28.1653 5.59499 26.2263 5.60012H8.83333C8.55719 5.60012 8.33333 5.82398 8.33333 6.10012V6.96679C8.33333 7.24293 8.55719 7.46679 8.83333 7.46679H20.9C21.1761 7.46679 21.4 7.69065 21.4 7.96679V8.83346C21.4 9.1096 21.1761 9.33346 20.9 9.33346H8.83333C8.55719 9.33346 8.33333 9.55731 8.33333 9.83346V10.7001C8.33333 10.9763 8.55719 11.2001 8.83333 11.2001H9.7C9.97614 11.2001 10.2 11.424 10.2 11.7001V12.5668C10.2 12.8429 9.97614 13.0668 9.7 13.0668H8.83333C8.55719 13.0668 8.33333 13.2906 8.33333 13.5668V14.4335C8.33333 14.7096 8.55719 14.9335 8.83333 14.9335H9.7C9.97614 14.9335 10.2 15.1573 10.2 15.4335V16.3001C10.2 16.5763 9.97614 16.8001 9.7 16.8001H8.83333C8.55719 16.8001 8.33333 17.024 8.33333 17.3001V18.1668C8.33333 18.4429 8.55719 18.6668 8.83333 18.6668H9.7C9.97614 18.6668 10.2 18.8906 10.2 19.1668V38.7001C10.2 38.9763 9.97614 39.2001 9.7 39.2001H1.5C1.22386 39.2001 1 39.424 1 39.7001V40.1335C1.00618 45.801 5.59912 50.3939 11.2667 50.4001H44.7333C50.4009 50.3939 54.9938 45.801 55 40.1335V39.7001C55 39.424 54.7761 39.2001 54.5 39.2001H53.6797C53.3316 39.2001 53.0881 38.8486 53.1211 38.502C53.1285 38.4239 53.1326 38.3454 53.1333 38.2668C53.1288 37.197 52.518 36.2417 51.5895 35.7761C51.3208 35.6413 51.1656 35.3284 51.2208 35.033C51.4592 33.7575 50.7781 32.4476 49.5294 31.9394C49.192 31.8021 48.8309 31.7321 48.4667 31.7335H47.1464C46.7982 31.7335 46.5548 31.3819 46.5877 31.0353C46.5951 30.9572 46.5993 30.8788 46.6 30.8001C46.6 29.2537 45.3464 28.0001 43.8 28.0001H41.4527C39.7188 27.9952 38.055 28.6845 36.8327 29.9144L35.16 31.587C35.0663 31.6808 34.9391 31.7335 34.8065 31.7335H29.8C28.2593 31.7275 27.0055 32.9716 26.9994 34.5123C26.9987 34.6873 27.0145 34.8616 27.0463 35.0328C27.1012 35.3284 26.9459 35.6413 26.6772 35.7761C25.7487 36.2418 25.1379 37.197 25.1333 38.2668C25.1341 38.3454 25.1382 38.4239 25.1456 38.502C25.1785 38.8486 24.9351 39.2001 24.5869 39.2001H23.7667C23.4905 39.2001 23.2667 38.9763 23.2667 38.7001V19.1668C23.2667 18.8906 23.4905 18.6668 23.7667 18.6668H26.2263ZM23.2667 7.96679C23.2667 7.69065 23.4905 7.46679 23.7667 7.46679H26.2263C27.6699 7.46294 29.0552 8.03659 30.0735 9.05999C31.4409 10.4347 33.3014 11.2054 35.2404 11.2001H52.6333C52.9095 11.2001 53.1333 11.424 53.1333 11.7001V12.5668C53.1333 12.8429 52.9095 13.0668 52.6333 13.0668H35.2404C33.3014 13.0615 31.4409 13.8322 30.0735 15.2069C29.0552 16.2303 27.6699 16.804 26.2263 16.8001H23.7667C23.4905 16.8001 23.2667 16.5763 23.2667 16.3001V7.96679ZM19.5333 11.7001C19.5333 11.424 19.7572 11.2001 20.0333 11.2001H20.9C21.1761 11.2001 21.4 11.424 21.4 11.7001V38.7001C21.4 38.9763 21.1761 39.2001 20.9 39.2001H20.0333C19.7572 39.2001 19.5333 38.9763 19.5333 38.7001V11.7001ZM15.8 11.7001C15.8 11.424 16.0239 11.2001 16.3 11.2001H17.1667C17.4428 11.2001 17.6667 11.424 17.6667 11.7001V38.7001C17.6667 38.9763 17.4428 39.2001 17.1667 39.2001H16.3C16.0239 39.2001 15.8 38.9763 15.8 38.7001V11.7001ZM12.0667 11.7001C12.0667 11.424 12.2905 11.2001 12.5667 11.2001H13.4333C13.7095 11.2001 13.9333 11.424 13.9333 11.7001V38.7001C13.9333 38.9763 13.7095 39.2001 13.4333 39.2001H12.5667C12.2905 39.2001 12.0667 38.9763 12.0667 38.7001V11.7001ZM50.3333 37.3335C50.8488 37.3335 51.2667 37.7514 51.2667 38.2668C51.2667 38.7822 50.8488 39.2001 50.3333 39.2001H37.7667C37.4905 39.2001 37.2667 38.9763 37.2667 38.7001V38.1063C37.2676 37.8589 37.3658 37.6219 37.5401 37.4464C37.6124 37.3741 37.7105 37.3335 37.8128 37.3335H50.3333ZM48.4667 33.6001C48.9821 33.6001 49.4 34.018 49.4 34.5335C49.4 35.0489 48.9821 35.4668 48.4667 35.4668H40.7268C40.2814 35.4668 40.0583 34.9282 40.3733 34.6132L41.1129 33.8736C41.2882 33.6984 41.5259 33.5999 41.7737 33.6001H48.4667ZM33.5333 37.7861C33.5357 37.3965 33.5868 37.0085 33.6855 36.6316C33.891 35.8222 34.3101 35.0828 34.8988 34.4905L37.654 31.7335L38.1533 31.2341C39.0262 30.3559 40.2144 29.8634 41.4527 29.8668H43.8C44.3154 29.8668 44.7333 30.2847 44.7333 30.8001C44.7333 31.3156 44.3154 31.7335 43.8 31.7335H41.7737C41.0304 31.7315 40.3174 32.0269 39.7932 32.5539L36.6068 35.7403L36.2204 36.1267C35.6935 36.6505 35.3981 37.3633 35.4 38.1063V43.8668C35.4 44.3822 34.9821 44.8001 34.4667 44.8001C33.9512 44.8001 33.5333 44.3822 33.5333 43.8668V37.7861ZM29.7981 33.5964C29.7992 33.5964 29.8 33.5972 29.8 33.5983C29.8 33.5993 29.8008 33.6001 29.8019 33.6001H33.0622C33.1104 33.6001 33.1449 33.6628 33.1143 33.7C32.9479 33.9081 32.7945 34.1263 32.6551 34.3533C32.6224 34.4075 32.5832 34.456 32.5515 34.5111C32.3873 34.7979 32.245 35.0968 32.1259 35.4052C32.1122 35.441 32.0733 35.4631 32.0349 35.4631H29.8C29.2846 35.4631 28.8667 35.0452 28.8667 34.5297C28.8667 34.0149 29.2836 33.5974 29.7981 33.5964ZM27.9333 37.3335H31.2304C31.475 37.3335 31.6667 37.5415 31.6667 37.7861V38.7001C31.6667 38.9763 31.4428 39.2001 31.1667 39.2001H27.9333C27.4179 39.2001 27 38.7822 27 38.2668C27 37.7514 27.4179 37.3335 27.9333 37.3335ZM27.9333 41.0668H31.1667C31.4428 41.0668 31.6667 41.2906 31.6667 41.5668V43.8668C31.6667 45.4132 32.9202 46.6668 34.4667 46.6668C36.0131 46.6668 37.2667 45.4132 37.2667 43.8668V41.5668C37.2667 41.2906 37.4905 41.0668 37.7667 41.0668H52.5223C52.8207 41.0668 53.0538 41.3273 53.0008 41.621C52.2842 45.5921 48.8215 48.5285 44.7333 48.5335H11.2667C7.17847 48.5285 3.71579 45.5921 2.99922 41.621C2.94623 41.3273 3.17935 41.0668 3.47775 41.0668H27.9333Z" fill="#C72828"/>
</svg>
